<svg xmlns="http://www.w3.org/2000/svg" viewBox="0 0 1000 200" fill="none" preserveAspectRatio="none">
  <!-- Top-left corner -->
  <path d="M18 42c8-14 22-24 38-28M12 62c-2-8 2-16 12-22" stroke="#7aab8e" stroke-width="1.5" stroke-linecap="round" opacity=".78"/>
  <path d="M8 24c6 4 10 10 8 18-6-2-10-7-10-13 0-2 1-3 2-5z" fill="#a8c9b0" opacity=".82"/>
  <path d="M28 12c4 5 4 11 0 16-4-3-6-8-4-13 1-2 2-2 4-3z" fill="#bce4de" opacity=".78"/>
  <circle cx="14" cy="48" r="2" fill="#B3A2FE" opacity=".5"/>

  <!-- Top-right corner -->
  <path d="M982 42c-8-14-22-24-38-28M988 62c2-8-2-16-12-22" stroke="#7aab8e" stroke-width="1.5" stroke-linecap="round" opacity=".78"/>
  <path d="M992 24c-6 4-10 10-8 18 6-2 10-7 10-13 0-2-1-3-2-5z" fill="#a8c9b0" opacity=".82"/>
  <path d="M972 12c-4 5-4 11 0 16 4-3 6-8 4-13-1-2-2-2-4-3z" fill="#bce4de" opacity=".78"/>
  <circle cx="986" cy="48" r="2" fill="#B3A2FE" opacity=".5"/>

  <!-- Bottom-left corner -->
  <path d="M18 158c8 14 22 24 38 28M12 138c-2 8 2 16 12 22" stroke="#7aab8e" stroke-width="1.5" stroke-linecap="round" opacity=".78"/>
  <path d="M8 176c6-4 10-10 8-18-6 2-10 7-10 13 0 2 1 3 2 5z" fill="#a8c9b0" opacity=".82"/>
  <path d="M28 188c4-5 4-11 0-16-4 3-6 8-4 13-1 2-2 2-4 3z" fill="#bce4de" opacity=".78"/>
  <circle cx="14" cy="152" r="2" fill="#B3A2FE" opacity=".5"/>

  <!-- Bottom-right corner -->
  <path d="M982 158c-8 14-22 24-38 28M988 138c2 8-2 16-12 22" stroke="#7aab8e" stroke-width="1.5" stroke-linecap="round" opacity=".78"/>
  <path d="M992 176c-6-4-10-10-8-18 6 2 10 7 10 13 0 2-1 3-2 5z" fill="#a8c9b0" opacity=".82"/>
  <path d="M972 188c-4-5-4-11 0-16 4 3 6 8 4 13 1 2 2 2 4 3z" fill="#bce4de" opacity=".78"/>
  <circle cx="986" cy="152" r="2" fill="#B3A2FE" opacity=".5"/>

  <!-- Continuous rounded border -->
  <rect x="14" y="14" width="972" height="172" rx="22" stroke="url(#benefitTileVineGrad)" stroke-width="1.5" fill="none" opacity=".92"/>

  <defs>
    <linearGradient id="benefitTileVineGrad" x1="0" y1="0" x2="1000" y2="200" gradientUnits="userSpaceOnUse">
      <stop stop-color="#7aab8e"/>
      <stop offset=".25" stop-color="#bce4de"/>
      <stop offset=".5" stop-color="#B3A2FE"/>
      <stop offset=".75" stop-color="#a8c9b0"/>
      <stop offset="1" stop-color="#7aab8e"/>
    </linearGradient>
  </defs>
</svg>
