<svg xmlns="http://www.w3.org/2000/svg" viewBox="0 0 96 96" fill="none">
  <path
    d="M12 88V32a20 20 0 0 1 20-20H88"
    stroke="url(#benefitVineGrad)"
    stroke-width="2.2"
    stroke-linecap="round"
    fill="none"
  />
  <path
    d="M8 38c8-13 22-21 36-23"
    stroke="#5d8a6f"
    stroke-width="1.5"
    stroke-linecap="round"
    opacity=".88"
  />
  <path
    d="M4 22c6 4 10 12 8 21-6-2-9-8-9-15 0-2 1-4 2-5z"
    fill="#7aab8e"
    opacity=".92"
  />
  <path
    d="M24 6c4 6 4 13 0 18-4-4-6-10-4-15z"
    fill="#8fd4c8"
    opacity=".9"
  />
  <path
    d="M32 12H88"
    stroke="url(#benefitVineGrad)"
    stroke-width="1.4"
    stroke-linecap="round"
    opacity=".55"
  />
  <path
    d="M12 56V88"
    stroke="url(#benefitVineGrad)"
    stroke-width="1.4"
    stroke-linecap="round"
    opacity=".55"
  />
  <circle cx="12" cy="52" r="2.4" fill="#9580f5" opacity=".72" />
  <circle cx="28" cy="18" r="1.6" fill="#bce4de" opacity=".8" />
  <defs>
    <linearGradient id="benefitVineGrad" x1="12" y1="88" x2="88" y2="12" gradientUnits="userSpaceOnUse">
      <stop stop-color="#5d8a6f" />
      <stop offset=".4" stop-color="#7aab8e" />
      <stop offset=".65" stop-color="#bce4de" />
      <stop offset="1" stop-color="#9580f5" />
    </linearGradient>
  </defs>
</svg>
