<svg xmlns="http://www.w3.org/2000/svg" width="1600" height="900" viewBox="0 0 1600 900" fill="none">
  <!-- Soft glade atmosphere — greens at edges, purple accents only -->
  <ellipse cx="160" cy="720" rx="300" ry="220" fill="#bce4de" fill-opacity=".06"/>
  <ellipse cx="1440" cy="720" rx="280" ry="200" fill="#a8c9b0" fill-opacity=".055"/>
  <ellipse cx="200" cy="160" rx="240" ry="180" fill="#7aab8e" fill-opacity=".05"/>
  <ellipse cx="1400" cy="140" rx="220" ry="160" fill="#B3A2FE" fill-opacity=".04"/>

  <!-- TOP LEFT: drooping willow branches -->
  <path d="M0 0c60 40 100 90 120 150 20-40 16-84 4-124-28 4-56 8-84 12-26 8-52 16-78 26z" fill="#7aab8e" fill-opacity=".09"/>
  <path d="M20 40c18-12 38-18 60-16M48 80c14-10 30-14 48-12M76 120c12-8 26-12 42-10" stroke="#7aab8e" stroke-opacity=".13" stroke-width="1.2" stroke-linecap="round"/>
  <path d="M100 160c10-8 22-12 36-10M128 200c8-6 18-10 28-8" stroke="#8fd4c8" stroke-opacity=".11" stroke-width="1" stroke-linecap="round"/>
  <ellipse cx="88" cy="188" rx="10" ry="18" fill="#a8c9b0" fill-opacity=".1" transform="rotate(-28 88 188)"/>
  <ellipse cx="132" cy="148" rx="8" ry="14" fill="#bce4de" fill-opacity=".09" transform="rotate(16 132 148)"/>

  <!-- TOP RIGHT: birch canopy -->
  <path d="M1600 0c-70 50-120 110-140 180-16-52-12-108 8-158 28-8 56-14 84-20 24 8 48 16 68 28-12 28-16 56-20 70z" fill="#B3A2FE" fill-opacity=".055"/>
  <path d="M1520 60c-16 12-34 18-54 16M1480 100c-12 10-26 14-42 12M1440 140c-10 8-22 12-34 10" stroke="#9b88eb" stroke-opacity=".12" stroke-width="1.1" stroke-linecap="round"/>
  <ellipse cx="1500" cy="170" rx="44" ry="52" fill="#c4b5ff" fill-opacity=".08"/>
  <ellipse cx="1540" cy="130" rx="32" ry="38" fill="#a2bffe" fill-opacity=".07"/>

  <!-- LEFT: tall woodland edge -->
  <path d="M0 900c30-100 70-180 120-240 36-40 80-64 128-68-48 54-74 118-84 184-6 42-8 84-12 124-16 56-32 100-52 80z" fill="#7aab8e" fill-opacity=".085"/>
  <path d="M40 720V320c0-8 4-14 10-16 6-2 12 0 16 6 4 8 4 18 0 26-2 4-4 8-6 12V720z" fill="#8a9a7e" fill-opacity=".075"/>
  <path d="M36 340c-20 10-36 26-48 46M48 390c-14 8-28 18-38 32M60 440c-10 6-20 14-26 24" stroke="#7aab8e" stroke-opacity=".13" stroke-width="1.1" stroke-linecap="round"/>
  <ellipse cx="20" cy="280" rx="50" ry="60" fill="#a8c9b0" fill-opacity=".085"/>

  <!-- LEFT mid: fern grove -->
  <path d="M180 900c12-70 36-130 72-176 28-36 64-56 104-58-44 48-68 104-76 168-4 28-8 56-12 84-8 44-16 82-88 66z" fill="#a8c9b0" fill-opacity=".08"/>
  <path d="M208 760c-8 12-10 26-8 40M220 700c-6 10-6 22-2 32M232 640c-4 8-4 18 0 26M244 580c-3 6-2 14 2 20" stroke="#7aab8e" stroke-opacity=".12" stroke-width="1" stroke-linecap="round"/>

  <!-- RIGHT: mixed shrubs and flowers -->
  <path d="M1600 900c-40-110-90-200-150-260-40-40-88-64-140-68 56 60 88 130 98 204 8 48 14 96 22 124-8 56-16 100-30 80z" fill="#a8c9b0" fill-opacity=".08"/>
  <path d="M1540 720V380c0-7 4-13 10-15 6-2 12 0 14 8 2 8 0 16-4 22-2 3-4 6-6 10V720z" fill="#9b88eb" fill-opacity=".065"/>
  <ellipse cx="1480" cy="340" rx="70" ry="58" fill="#B3A2FE" fill-opacity=".08"/>
  <ellipse cx="1540" cy="300" rx="52" ry="44" fill="#c4b5ff" fill-opacity=".07"/>

  <!-- RIGHT: lavender and wild stems -->
  <path d="M1480 900c-14-60-36-112-68-152-20-24-46-38-74-40 32 36 52 78 62 124 4 24 8 48 12 72 8 36 16 68 28 48z" fill="#B3A2FE" fill-opacity=".07"/>
  <path d="M1500 780c-4 8-12 14-22 16M1516 720c-3 6-8 11-14 14M1532 660c-2 5-2 11 2 16" stroke="#9b88eb" stroke-opacity=".11" stroke-width="1" stroke-linecap="round"/>
  <ellipse cx="1492" cy="800" rx="5" ry="10" fill="#B3A2FE" fill-opacity=".13" transform="rotate(20 1492 800)"/>
  <ellipse cx="1516" cy="768" rx="4" ry="8" fill="#a2bffe" fill-opacity=".11" transform="rotate(-14 1516 768)"/>
  <circle cx="1504" cy="736" r="2" fill="#9b88eb" fill-opacity=".16"/>

  <!-- BOTTOM LEFT: forest floor -->
  <path d="M0 900c50-40 100-60 160-64 40 44 60 96 64 152 2 28 4 56 6 84-50-36-100-56-160-64-36 4-72 8-108 12-22-40-44-80-62-120z" fill="#7aab8e" fill-opacity=".07"/>
  <path d="M120 860c-8 10-18 16-30 18M160 820c-6 8-14 14-24 16M200 780c-4 6-10 11-18 14" stroke="#7aab8e" stroke-opacity=".1" stroke-width="1" stroke-linecap="round"/>
  <ellipse cx="80" cy="840" rx="6" ry="11" fill="#bce4de" fill-opacity=".12" transform="rotate(-16 80 840)"/>
  <ellipse cx="140" cy="812" rx="5" ry="9" fill="#B3A2FE" fill-opacity=".11" transform="rotate(12 140 812)"/>

  <!-- BOTTOM RIGHT: bracken and bluebells -->
  <path d="M1600 900c-50-40-100-60-160-64-40 44-60 96-64 152-2 28-4 56-6 84 50-36 100-56 160-64 36 4 72 8 108 12 22-40 44-80 62-120z" fill="#a8c9b0" fill-opacity=".07"/>
  <path d="M1480 860c8 10 18 16 30 18M1440 820c6 8 14 14 24 16M1400 780c4 6 10 11 18 14" stroke="#8fd4c8" stroke-opacity=".1" stroke-width="1" stroke-linecap="round"/>
  <circle cx="1460" cy="832" r="2.2" fill="#B3A2FE" fill-opacity=".15"/>
  <circle cx="1420" cy="804" r="1.8" fill="#bce4de" fill-opacity=".14"/>
  <circle cx="1380" cy="776" r="2" fill="#9b88eb" fill-opacity=".13"/>

  <!-- Side mid accents framing FAQ column -->
  <path d="M280 900c8-60 20-112 40-154 10-18 24-30 42-34-22 28-34 60-40 94-4 22-8 44-12 66-6 32-12 62-30 48z" fill="#bce4de" fill-opacity=".055"/>
  <path d="M1320 900c-8-60-20-112-40-154-10-18-24-30-42-34 22 28 34 60 40 94 4 22 8 44 12 66 6 32 12 62 30 48z" fill="#bce4de" fill-opacity=".055"/>
  <path d="M260 200c-10 14-24 24-40 30 14-10 26-22 38-36" stroke="#9b88eb" stroke-opacity=".1" stroke-width="1" stroke-linecap="round"/>
  <path d="M1340 700c10 14 24 24 40 30-14-10-26-22-38-36" stroke="#9b88eb" stroke-opacity=".1" stroke-width="1" stroke-linecap="round"/>

  <!-- Floating botanical accents -->
  <circle cx="340" cy="320" r="2" fill="#B3A2FE" fill-opacity=".13"/>
  <circle cx="1260" cy="580" r="2" fill="#7aab8e" fill-opacity=".12"/>
  <circle cx="380" cy="640" r="1.6" fill="#bce4de" fill-opacity=".12"/>
  <circle cx="1220" cy="360" r="1.6" fill="#a2bffe" fill-opacity=".11"/>
</svg>
