<svg xmlns="http://www.w3.org/2000/svg" viewBox="0 0 80 80" fill="none">
  <defs>
    <linearGradient id="leafA" x1="8" y1="8" x2="72" y2="72" gradientUnits="userSpaceOnUse">
      <stop stop-color="#bce4de" stop-opacity=".9"/>
      <stop offset=".45" stop-color="#8fd4c8" stop-opacity=".75"/>
      <stop offset="1" stop-color="#a2bffe" stop-opacity=".4"/>
    </linearGradient>
    <linearGradient id="leafB" x1="40" y1="10" x2="70" y2="60" gradientUnits="userSpaceOnUse">
      <stop stop-color="#B3A2FE" stop-opacity=".35"/>
      <stop offset="1" stop-color="#bce4de" stop-opacity=".7"/>
    </linearGradient>
  </defs>
  <path d="M40 72C18 58 10 36 14 18c10 4 18 12 26 22 2-14 8-26 20-34-2 18-4 34-4 48 0 8-2 14-6 18z" fill="url(#leafA)"/>
  <path d="M40 72V28" stroke="#1C30A3" stroke-opacity=".12" stroke-width="1.4" stroke-linecap="round"/>
  <path d="M52 20c12 8 16 22 10 36-6-10-10-22-10-36z" fill="url(#leafB)"/>
  <circle cx="58" cy="16" r="2" fill="#B3A2FE" fill-opacity=".45"/>
  <circle cx="18" cy="42" r="1.5" fill="#bce4de" fill-opacity=".55"/>
</svg>
