<svg xmlns="http://www.w3.org/2000/svg" viewBox="0 0 400 520" fill="none" preserveAspectRatio="none">
  <path d="M18 42c8-14 22-24 38-28M12 78c-2-10 2-22 12-30" stroke="#7aab8e" stroke-width="1.6" stroke-linecap="round" opacity=".75"/>
  <path d="M8 28c6 4 10 12 8 22-6-2-10-8-10-16 0-2 1-4 2-6z" fill="#a8c9b0" opacity=".85"/>
  <path d="M28 14c4 6 4 14 0 20-4-4-6-10-4-16 1-2 2-3 4-4z" fill="#bce4de" opacity=".8"/>
  <circle cx="14" cy="58" r="2.2" fill="#B3A2FE" opacity=".55"/>
  <path d="M382 42c-8-14-22-24-38-28M388 78c2-10-2-22-12-30" stroke="#7aab8e" stroke-width="1.6" stroke-linecap="round" opacity=".75"/>
  <path d="M392 28c-6 4-10 12-8 22 6-2 10-8 10-16 0-2-1-4-2-6z" fill="#a8c9b0" opacity=".85"/>
  <path d="M372 14c-4 6-4 14 0 20 4-4 6-10 4-16-1-2-2-3-4-4z" fill="#bce4de" opacity=".8"/>
  <circle cx="386" cy="58" r="2.2" fill="#B3A2FE" opacity=".55"/>
  <path d="M18 478c8 14 22 24 38 28M12 442c-2 10 2 22 12 30" stroke="#7aab8e" stroke-width="1.6" stroke-linecap="round" opacity=".75"/>
  <path d="M8 492c6-4 10-12 8-22-6 2-10 8-10 16 0 2 1 4 2 6z" fill="#a8c9b0" opacity=".85"/>
  <path d="M28 506c4-6 4-14 0-20-4 4-6 10-4 16 1 2 2 3 4 4z" fill="#bce4de" opacity=".8"/>
  <circle cx="14" cy="462" r="2.2" fill="#B3A2FE" opacity=".55"/>
  <path d="M382 478c-8 14-22 24-38 28M388 442c2 10-2 22-12 30" stroke="#7aab8e" stroke-width="1.6" stroke-linecap="round" opacity=".75"/>
  <path d="M392 492c-6-4-10-12-8-22 6 2 10 8 10 16 0 2-1 4-2 6z" fill="#a8c9b0" opacity=".85"/>
  <path d="M372 506c-4-6-4-14 0-20 4 4 6 10 4 16-1 2-2 3-4 4z" fill="#bce4de" opacity=".8"/>
  <circle cx="386" cy="462" r="2.2" fill="#B3A2FE" opacity=".55"/>
  <rect x="14" y="14" width="372" height="492" rx="22" stroke="url(#vineGrad)" stroke-width="1.5" fill="none" opacity=".9"/>
  <defs>
    <linearGradient id="vineGrad" x1="0" y1="0" x2="400" y2="520" gradientUnits="userSpaceOnUse">
      <stop stop-color="#7aab8e"/>
      <stop offset=".25" stop-color="#bce4de"/>
      <stop offset=".5" stop-color="#B3A2FE"/>
      <stop offset=".75" stop-color="#a8c9b0"/>
      <stop offset="1" stop-color="#7aab8e"/>
    </linearGradient>
  </defs>
</svg>
