<svg xmlns="http://www.w3.org/2000/svg" viewBox="0 0 40 80" fill="#1C30A3" fill-opacity=".13">
  <path d="M20 76V16" fill="none" stroke="#1C30A3" stroke-opacity=".13" stroke-width="1.2" stroke-linecap="round"/>
  <path d="M20 24c-6-1-9 3-10 9 5-1 8-3 10-9z"/>
  <path d="M20 36c7 0 11 4 12 10-6-1-10-4-12-10z" fill-opacity=".11"/>
  <path d="M20 48c-5 1-8 5-9 11 5-2 8-5 9-11z" fill-opacity=".1"/>
  <path d="M20 60c6 1 10 5 11 11-6-2-9-5-11-11z" fill-opacity=".09"/>
  <circle cx="20" cy="12" r="2.5" fill-opacity=".08"/>
  <circle cx="16" cy="70" r="1.8" fill-opacity=".07"/>
</svg>
